<svg id="Component_16_1" data-name="Component 16 – 1" xmlns="http://www.w3.org/2000/svg" width="1454.117" height="1402.831" viewBox="0 0 1454.117 1402.831">
  <g id="Group_13443" data-name="Group 13443" transform="matrix(0.899, -0.438, 0.438, 0.899, -1152.207, -1630.801)">
    <path id="Path_18568" data-name="Path 18568" d="M339.786,0C501.642,0,744.427,420.38,663.5,560.506s-566.5,140.127-647.424,0S177.93,0,339.786,0Z" transform="matrix(0.485, 0.875, -0.875, 0.485, 686.855, 2413.703)" fill="#f5bfcb" opacity="0.3"/>
    <path id="Path_18569" data-name="Path 18569" d="M254.162,497.874c121.069,0,302.673-314.446,242.139-419.262S72.559-26.2,12.024,78.612,133.093,497.874,254.162,497.874Z" transform="translate(839.575 2832.222) rotate(97)" fill="#38a2ff" opacity="0.2"/>
    <path id="Path_18570" data-name="Path 18570" d="M344.055,673.963c163.889,0,409.723-425.661,327.779-567.548s-573.612-141.887-655.557,0S180.166,673.963,344.055,673.963Z" transform="matrix(-0.545, -0.839, 0.839, -0.545, 663.454, 3426.293)" fill="#2a52c6" opacity="0.1"/>
  </g>
</svg>
