<svg xmlns="http://www.w3.org/2000/svg" width="325.166" height="198.044" viewBox="0 0 325.166 198.044">
  <g id="undraw_contemplating_8t0x" transform="translate(0)">
    <circle id="Ellipse_4381" data-name="Ellipse 4381" cx="95.5" cy="95.5" r="95.5" transform="translate(69.07 0)" fill="#e9edf9"/>
    <path id="Path_18727" data-name="Path 18727" d="M972.722,180.915l-5.841,14.708c1.13,5.116,2.236,10.885,3.123,17.029l10.4-21.763.17.262a47.065,47.065,0,0,0-8.031-10.479Z" transform="translate(-699.384 -158.668)" fill="#2a52c6"/>
    <path id="Path_18728" data-name="Path 18728" d="M952.164,178.3l5.658-14.247a24.794,24.794,0,0,0-10.687-6.25c-.2-.05-.391-.093-.585-.136C947,159.012,949.615,166.955,952.164,178.3Z" transform="translate(-684.867 -142.238)" fill="#2a52c6"/>
    <path id="Path_18729" data-name="Path 18729" d="M1002.695,324.51l.131.326q-.209-3.331-.657-6.591l-18.078,22.594-.066-.147q-.059,2-.176,3.946Z" transform="translate(-711.5 -256.9)" fill="#2a52c6"/>
    <path id="Path_18730" data-name="Path 18730" d="M995.416,234.156l.152.3a74,74,0,0,0-6.694-16.132l-10.6,22.178q1.208,8.643,1.617,16.68Z" transform="translate(-707.521 -185.552)" fill="#2a52c6"/>
    <path id="Path_18731" data-name="Path 18731" d="M855.432,223.416a61.78,61.78,0,0,0-2.822,12.128L889.5,257.1c-.33-4.643-.83-9.085-1.409-13.19l-32.7-20.144Z" transform="translate(-617.79 -189.189)" fill="#2a52c6"/>
    <path id="Path_18732" data-name="Path 18732" d="M850.907,271.507l.034-.351,37.593,21.256q-.08-1.711-.192-3.392l-37.03-21.634.036-.351Q851.066,269.218,850.907,271.507Z" transform="translate(-616.574 -220.335)" fill="#2a52c6"/>
    <path id="Path_18733" data-name="Path 18733" d="M1002.147,287.367l.141.314a88.37,88.37,0,0,0-2.458-11.655L984.1,299.364q.242,5.361.122,10.41Z" transform="translate(-711.677 -226.755)" fill="#2a52c6"/>
    <path id="Path_18734" data-name="Path 18734" d="M960.153,414.987a72.065,72.065,0,0,1-6.881,19.837c4.308-3.674,21.413-19.23,26.475-38.664Z" transform="translate(-689.666 -312.534)" fill="#2a52c6"/>
    <path id="Path_18735" data-name="Path 18735" d="M854.425,341.7a85.485,85.485,0,0,0,3.158,11l.059-.38L889.235,375.3a106.258,106.258,0,0,0,1.645-12.63Z" transform="translate(-619.086 -273.649)" fill="#2a52c6"/>
    <path id="Path_18736" data-name="Path 18736" d="M912.5,177.387c-2.761-12.269-5.589-20.515-5.63-20.634l.177-.152c-5.78-1.188-11.1.7-15.475,4.936Z" transform="translate(-645.61 -141.231)" fill="#2a52c6"/>
    <path id="Path_18737" data-name="Path 18737" d="M979.677,363.191c-.027.4-.053.806-.084,1.2a105.58,105.58,0,0,1-1.494,11.392l19.408-18.649.121.323a41.856,41.856,0,0,0,1.264-10.489q-.023-2.084-.145-4.15Z" transform="translate(-707.395 -274.449)" fill="#2a52c6"/>
    <path id="Path_18738" data-name="Path 18738" d="M895.3,208.861c-.881-6.073-1.976-11.774-3.094-16.83l-21.409-16.214.056-.338a35.632,35.632,0,0,0-7.99,13.4Z" transform="translate(-625.11 -154.96)" fill="#2a52c6"/>
    <path id="Path_18739" data-name="Path 18739" d="M897.39,404.546l-31.362-22.811c7.773,21.537,22.931,42.228,23.9,43.541A69.75,69.75,0,0,0,897.39,404.546Z" transform="translate(-627.371 -302.234)" fill="#2a52c6"/>
    <path id="Path_18740" data-name="Path 18740" d="M887.905,320.689l.018-.019a143.4,143.4,0,0,0,.148-15.438l-37.686-21.308q-.2,3.1-.168,6.379a51.389,51.389,0,0,0,1.025,9.3Z" transform="translate(-616.078 -232.393)" fill="#2a52c6"/>
    <path id="Path_18741" data-name="Path 18741" d="M1111.814,467.022l-13.879,7.6c-2.393,4.661-5.221,9.81-8.456,15.107l21.89-10.129-.036.311a47.074,47.074,0,0,0,.5-13.193Z" transform="translate(-786.923 -362.918)" fill="#2a52c6"/>
    <path id="Path_18742" data-name="Path 18742" d="M1120.512,442.876l13.445-7.364a24.794,24.794,0,0,0-4.244-11.63c-.119-.163-.241-.321-.364-.478C1128.836,424.734,1125.782,432.517,1120.512,442.876Z" transform="translate(-809.082 -331.988)" fill="#2a52c6"/>
    <path id="Path_18743" data-name="Path 18743" d="M1046.2,616.9l-.107.335q1.963-2.7,3.7-5.5l-28.335,5.871.043-.155q-1.321,1.5-2.652,2.927Z" transform="translate(-736.491 -466.464)" fill="#2a52c6"/>
    <path id="Path_18744" data-name="Path 18744" d="M1081.483,530.364l-.074.328A74,74,0,0,0,1086.543,514l-22.307,10.322q-4.582,7.427-9.394,13.878Z" transform="translate(-762.191 -396.675)" fill="#2a52c6"/>
    <path id="Path_18745" data-name="Path 18745" d="M1019.98,420.426a61.784,61.784,0,0,0-9.909,7.541l14.668,40.132c2.707-3.786,5.156-7.526,7.328-11.057l-12.339-36.372Z" transform="translate(-730.223 -329.861)" fill="#2a52c6"/>
    <path id="Path_18746" data-name="Path 18746" d="M998.017,450.785l.25-.249,15.4,40.349q1.03-1.368,2.015-2.735l-14.722-40.28.251-.247Q999.6,449.124,998.017,450.785Z" transform="translate(-721.616 -349.281)" fill="#2a52c6"/>
    <path id="Path_18747" data-name="Path 18747" d="M1057.995,583.819l-.092.332a88.37,88.37,0,0,0,5.541-10.544l-27,7.939q-3.233,4.283-6.546,8.095Z" transform="translate(-744.379 -439.239)" fill="#2a52c6"/>
    <path id="Path_18748" data-name="Path 18748" d="M936.187,672.434a72.067,72.067,0,0,1-17.952,10.889c5.661-.081,28.757-1.153,45.051-12.892Z" transform="translate(-664.649 -508.374)" fill="#2a52c6"/>
    <path id="Path_18749" data-name="Path 18749" d="M951.634,506.391a85.472,85.472,0,0,0-4.582,10.485l.288-.256,9.676,37.849a106.281,106.281,0,0,0,9.322-8.678Z" transform="translate(-685.225 -391.244)" fill="#2a52c6"/>
    <path id="Path_18750" data-name="Path 18750" d="M1104.188,426.871c5.7-11.21,8.78-19.366,8.824-19.483l.233,0c-3.694-4.6-8.993-6.54-15.067-6.069Z" transform="translate(-793.135 -316.166)" fill="#2a52c6"/>
    <path id="Path_18751" data-name="Path 18751" d="M993.338,635.714c-.278.292-.555.587-.833.874a105.544,105.544,0,0,1-8.416,7.821l26.842-1.984-.113.326a41.861,41.861,0,0,0,7.664-7.272q1.311-1.62,2.535-3.289Z" transform="translate(-711.671 -481.069)" fill="#2a52c6"/>
    <path id="Path_18752" data-name="Path 18752" d="M1057.938,442.871c3.195-5.24,5.988-10.329,8.352-14.936l-6.147-26.142.259-.225a35.632,35.632,0,0,0-14.7,5.227Z" transform="translate(-755.663 -316.396)" fill="#2a52c6"/>
    <path id="Path_18753" data-name="Path 18753" d="M932.706,582.2,923.1,544.625c-7.75,21.545-9.272,47.149-9.362,48.78A69.753,69.753,0,0,0,932.706,582.2Z" transform="translate(-661.438 -418.544)" fill="#2a52c6"/>
    <path id="Path_18754" data-name="Path 18754" d="M979.275,511.837l.026,0a143.4,143.4,0,0,0,9.96-11.8L973.827,459.59q-2.134,2.261-4.2,4.806a51.386,51.386,0,0,0-5.142,7.816Z" transform="translate(-697.674 -357.826)" fill="#2a52c6"/>
    <path id="Path_18755" data-name="Path 18755" d="M839.068,384.318l-1.009,15.793c2.656,4.516,5.491,9.661,8.234,15.23l3.163-23.912.243.2a47.067,47.067,0,0,0-10.877-7.483Z" transform="translate(-607.4 -303.954)" fill="#2a52c6"/>
    <path id="Path_18756" data-name="Path 18756" d="M807.168,392.323l.977-15.3a24.794,24.794,0,0,0-12.1-2.641c-.2.013-.4.032-.6.051C796.3,375.579,801.239,382.326,807.168,392.323Z" transform="translate(-576.977 -296.958)" fill="#2a52c6"/>
    <path id="Path_18757" data-name="Path 18757" d="M918.162,501.846l.226.27q-1.228-3.1-2.662-6.065l-10.209,27.076-.108-.119q.562,1.92,1.052,3.807Z" transform="translate(-655.49 -383.86)" fill="#2a52c6"/>
    <path id="Path_18758" data-name="Path 18758" d="M882.686,424.127l.237.238a74,74,0,0,0-11.353-13.273l-3.224,24.367q3.82,7.846,6.693,15.364Z" transform="translate(-629.027 -323.196)" fill="#2a52c6"/>
    <path id="Path_18759" data-name="Path 18759" d="M735.8,463.182a61.79,61.79,0,0,0,1.065,12.407l41.749,9.095c-1.749-4.314-3.6-8.384-5.417-12.108l-37.327-9.049Z" transform="translate(-534.381 -360.391)" fill="#2a52c6"/>
    <path id="Path_18760" data-name="Path 18760" d="M740.727,512.156l-.077-.344,42.323,8.6q-.6-1.6-1.231-3.166l-41.9-9.128-.074-.344Q740.171,509.93,740.727,512.156Z" transform="translate(-537.214 -392.227)" fill="#2a52c6"/>
    <path id="Path_18761" data-name="Path 18761" d="M906.429,468.688l.232.255a88.355,88.355,0,0,0-5.94-10.324l-7.749,27.057q1.887,5.024,3.333,9.862Z" transform="translate(-646.61 -357.133)" fill="#2a52c6"/>
    <path id="Path_18762" data-name="Path 18762" d="M917.768,594.748a72.072,72.072,0,0,1-.413,20.992c2.962-4.825,14.42-24.907,13.228-44.954Z" transform="translate(-664.021 -437.224)" fill="#2a52c6"/>
    <path id="Path_18763" data-name="Path 18763" d="M764.724,578.165a85.49,85.49,0,0,0,6.4,9.483l-.062-.38,37.149,12.089a106.269,106.269,0,0,0-2.339-12.52Z" transform="translate(-555.036 -442.493)" fill="#2a52c6"/>
    <path id="Path_18764" data-name="Path 18764" d="M773.245,392.833c-6.418-10.815-11.657-17.783-11.732-17.883l.121-.2c-5.864.657-10.339,4.095-13.192,9.477Z" transform="translate(-543.41 -297.248)" fill="#2a52c6"/>
    <path id="Path_18765" data-name="Path 18765" d="M909.952,543.951c.1.391.2.783.293,1.171a105.58,105.58,0,0,1,2.1,11.3l12.693-23.734.215.27a41.859,41.859,0,0,0-2.04-10.366q-.666-1.975-1.421-3.9Z" transform="translate(-658.734 -400.022)" fill="#2a52c6"/>
    <path id="Path_18766" data-name="Path 18766" d="M772.878,433.03c-2.715-5.5-5.519-10.587-8.144-15.05l-25.372-8.8-.051-.338a35.632,35.632,0,0,0-3.456,15.215Z" transform="translate(-534.423 -321.588)" fill="#2a52c6"/>
    <path id="Path_18767" data-name="Path 18767" d="M825.01,624.652l-36.877-12c14.049,18.08,34.861,33.072,36.19,34.021A69.753,69.753,0,0,0,825.01,624.652Z" transform="translate(-571.751 -467.118)" fill="#2a52c6"/>
    <path id="Path_18768" data-name="Path 18768" d="M790.481,547.7l.011-.024a143.435,143.435,0,0,0-4.631-14.727l-42.427-8.616q.767,3.012,1.812,6.119a51.383,51.383,0,0,0,3.849,8.527Z" transform="translate(-539.834 -404.054)" fill="#2a52c6"/>
    <path id="Path_18769" data-name="Path 18769" d="M243.583,695.887q43.312-.511,86.621.586a28.6,28.6,0,0,1,7.255.8c2.193.658,3.881,2.069,3.281,3.424q-16.906.5-33.848.309c-2.46,1.2-5.16,3.019-3.648,4.644,1.046,1.124,3.628,1.459,5.886,1.462,4.089,0,8.2-.667,12.224-.273s8.049,2.513,6.869,4.713c-.9,1.671-4.3,2.5-7.391,2.645s-6.263-.159-9.288.236a67.383,67.383,0,0,0-8.055,2.035,74.9,74.9,0,0,1-13.575,1.691c-35.537,2.171-71.369,2.154-107.115,2.134-14.472-.008-29.14-.03-43.114-2.142-7.966-1.2-15.6-3.074-23.666-4.045-9.635-1.159-19.593-1-29.446-.967q-25.947.091-51.85-1c-1.285-.054-2.862-.238-3.209-.935-.4-.814,1.238-1.449,2.626-1.774a152.49,152.49,0,0,1,23.923-3.568c4.08-.287,8.284-.433,12.037-1.377s7.031-2.925,7-5.235c-.011-.7-.308-1.459.28-2.081.781-.827,2.7-1.016,4.36-1.106,18.379-1,36.857-1.416,55.319-1.248,6.494.059,13.015.19,19.463-.248,5.283-.358,10.458-1.094,15.666-1.712,6.989-.829,37.407-5.125,41.844-1.639,3.322,2.609-3.536,3.172,5.373,4.237C227.159,696.38,235.716,695.98,243.583,695.887Z" transform="translate(-31.452 -522.255)" fill="#e9edf9"/>
    <circle id="Ellipse_4382" data-name="Ellipse 4382" cx="17" cy="17" r="17" transform="translate(179.07 48)" fill="#2f2e41"/>
    <ellipse id="Ellipse_4383" data-name="Ellipse 4383" cx="17" cy="17.5" rx="17" ry="17.5" transform="translate(198.07 25)" fill="#2f2e41"/>
    <path id="Path_18770" data-name="Path 18770" d="M768.045,264.343a17.159,17.159,0,0,1-26.5-9.009,17.159,17.159,0,1,0,33.47-7.036A17.152,17.152,0,0,1,768.045,264.343Z" transform="translate(-538.489 -206.955)" fill="#2f2e41"/>
    <circle id="Ellipse_4384" data-name="Ellipse 4384" cx="14.012" cy="14.012" r="14.012" transform="translate(177.725 58.479)" fill="#a0616a"/>
    <path id="Path_18771" data-name="Path 18771" d="M664.959,384.371s5.719,8.579,4.861,12.3c0,0-3.717,1.716-3.717,2.288s-3.432,6.005-3.432,6.005l-4,5.433-1.716,7.149h8.293l9.151-7.149,8.865-9.723s6.005-2.86,9.151-.572l1.716,1.43s-6.005-8.007-8.865-9.723c0,0-5.147-6.291-4.575-12.582Z" transform="translate(-478.083 -300.441)" fill="#a0616a"/>
    <path id="Path_18772" data-name="Path 18772" d="M640.336,439.224a19.572,19.572,0,0,0-8.007,9.151c-2.288,6.005-12.582,26.023-12.582,26.023s-.858,12.868-.286,13.44,7.149-5.719,8.293-7.435,5.719-22.305,5.719-22.305l7.435-12.01,1.43-6.863Z" transform="translate(-451.173 -343.284)" fill="#a0616a"/>
    <path id="Path_18773" data-name="Path 18773" d="M547.822,495.346l-2.574-.858s-15.728-9.723-16.586-14.012-13.44-18.588-13.726-10.867,9.151,16.3,9.151,16.3,20.589,28.882,21.733,20.589Z" transform="translate(-376.674 -363.375)" fill="#a0616a"/>
    <path id="Path_18774" data-name="Path 18774" d="M720.952,461.785s.286,8.007,11.438,10.867c0,0,11.438,15.442,12.582,22.305s31.17,42.036,31.17,42.036,27.738,3.432,27.738,0-23.163-6.291-23.163-6.291-24.307-36.031-25.451-40.893-12.01-40.893-17.158-40.607c0,0-4.861-2.288-7.721-.572S720.952,461.785,720.952,461.785Z" transform="translate(-523.781 -349.545)" fill="#a0616a"/>
    <path id="Path_18775" data-name="Path 18775" d="M359.354,533.893s-20.017-26.88-24.307-28.6-9.723-2.86-12.868,1.144-40.321,50.9-40.321,50.9-13.154,13.44-19.731,10.867c0,0-3.432,2.86,4.575,3.432a47.713,47.713,0,0,0,15.442-1.716s4.861.858,8.293,1.716,7.721,1.144,7.435-1.144l-1.144-9.151s29.454-24.307,30.312-34.6c0,0-.572-4.861,0-4.289s12.582,13.44,18.016,16.3,18.873,6.863,18.873,6.863Z" transform="translate(-195.641 -389.339)" fill="#a0616a"/>
    <path id="Path_18776" data-name="Path 18776" d="M359.354,533.893s-20.017-26.88-24.307-28.6-9.723-2.86-12.868,1.144-40.321,50.9-40.321,50.9-13.154,13.44-19.731,10.867c0,0-3.432,2.86,4.575,3.432a47.713,47.713,0,0,0,15.442-1.716s4.861.858,8.293,1.716,7.721,1.144,7.435-1.144l-1.144-9.151s29.454-24.307,30.312-34.6c0,0-.572-4.861,0-4.289s12.582,13.44,18.016,16.3,18.873,6.863,18.873,6.863Z" transform="translate(-195.641 -389.339)" opacity="0.1"/>
    <path id="Path_18777" data-name="Path 18777" d="M285.837,581.365s-26.308-10.009-29.74-12.3-15.728-6.863-22.019-1.716-36.889,28.882-47.184,31.17-28.024,7.721-28.024,7.721-11.438.858.858,5.719c0,0,15.156,1.43,17.73,3.717s11.153,5.147,11.724,1.43,2.288-8.579,5.433-9.151,40.893-10.867,46.612-22.019c0,0,12.868,7.149,20.875,15.442s26.88,12.868,26.88,12.868Z" transform="translate(-118.978 -433.094)" fill="#a0616a"/>
    <path id="Path_18778" data-name="Path 18778" d="M605.371,590.224s-12.535,3.332-13.56,2.095-6.458,5.626-1.31,19.352,4,20.017,6.863,22.019,16.3-1.144,20.3.286,9.151,2.574,10.867-5.719,6.005-22.877,5.147-24.879-5.433-6.577-5.433-6.577l-9.437-4.861Z" transform="translate(-429.075 -451.103)" fill="#3f3d56"/>
    <path id="Path_18779" data-name="Path 18779" d="M680.943,449.876s-1.991-5.577-5.686-6.622a9.5,9.5,0,0,1-.923-.3,7.041,7.041,0,0,0-8.69,2.492c-3.718,5.147-7.149,11.153-4.289,14.584s8.579,5.433,8.579,5.433l4.289,5.433s-8.579,15.442-8.579,22.591c0,0-.286,2.86-5.147-2.288s-24.755-8.706-24.755-8.706,4.166-5.592,1.02-8.166-6.025-12.825,1.42-16.85l12.735-18.752,2.288.286s-3,2.717-3.289,4.146-11.725,11.438-7.149,13.154,12.01-2,15.156-6.291c1.73-2.359,4.152-5.583,7.219-7.627a10.692,10.692,0,0,1,10.695-.574l.96.48h0a12.251,12.251,0,0,1,4.235,5.21l.341.8Z" transform="translate(-461.324 -342.927)" fill="#2f2e41"/>
    <ellipse id="Ellipse_4385" data-name="Ellipse 4385" cx="13" cy="12.5" rx="13" ry="12.5" transform="translate(187.07 56)" fill="#2f2e41"/>
    <ellipse id="Ellipse_4386" data-name="Ellipse 4386" cx="11" cy="9" rx="11" ry="9" transform="translate(179.07 55)" fill="#2f2e41"/>
    <ellipse id="Ellipse_4387" data-name="Ellipse 4387" cx="1.5" cy="3" rx="1.5" ry="3" transform="translate(193.07 75)" fill="#a0616a"/>
    <path id="Path_18780" data-name="Path 18780" d="M705.529,270.257v22.774h-6.577V270.257a1.533,1.533,0,0,1,1.533-1.533H704a1.533,1.533,0,0,1,1.533,1.533Z" transform="translate(-508.073 -221.54)" fill="#ff6584"/>
    <circle id="Ellipse_4388" data-name="Ellipse 4388" cx="7" cy="7" r="7" transform="translate(187.07 69)" fill="#2a52c6"/>
    <circle id="Ellipse_4389" data-name="Ellipse 4389" cx="3.5" cy="3.5" r="3.5" transform="translate(191.07 73)" fill="#f2f2f2"/>
    <ellipse id="Ellipse_4390" data-name="Ellipse 4390" cx="1" cy="0.5" rx="1" ry="0.5" transform="translate(193.07 76)" fill="#ff6584"/>
    <path id="Path_18781" data-name="Path 18781" d="M705.529,270.257V271.3h-6.577v-1.041a1.533,1.533,0,0,1,1.533-1.533H704a1.533,1.533,0,0,1,1.533,1.533Z" transform="translate(-508.073 -221.54)" opacity="0.1"/>
    <path id="Path_18782" data-name="Path 18782" d="M452.509,427.031l16.837-16.837a3.141,3.141,0,0,1,4.442,0l15.147,15.147a3.141,3.141,0,0,1,0,4.442L473.2,445.513a3.141,3.141,0,0,1-4.274.156l-16.252-14.041a3.141,3.141,0,0,1-.168-4.6Z" transform="translate(-331.446 -321.898)" fill="#2f2e41"/>
    <path id="Path_18783" data-name="Path 18783" d="M440,340.227,454.727,325.5l12.153,12.153-14.155,14.155Z" transform="translate(-314.177 -232.419)" fill="#f2f2f2"/>
    <circle id="Ellipse_4391" data-name="Ellipse 4391" cx="7.038" cy="7.038" r="7.038" transform="translate(132.512 99.054)" fill="#2a52c6"/>
    <path id="Path_18784" data-name="Path 18784" d="M498.747,463.151a7.038,7.038,0,0,1,7.169-11.763,7.038,7.038,0,1,0-6.387,12.4,7.088,7.088,0,0,1-.782-.635Z" transform="translate(-362.33 -351.06)" opacity="0.1"/>
    <path id="Path_18785" data-name="Path 18785" d="M519.084,469.3c.839.789.884,3.627-.4,4.991s-3.4.736-4.243-.052-.078-1.44,1.2-2.8S518.244,468.514,519.084,469.3Z" transform="translate(-376.074 -364.609)" fill="#f2f2f2"/>
    <circle id="Ellipse_4392" data-name="Ellipse 4392" cx="2.085" cy="2.085" r="2.085" transform="translate(133.78 104.121)" fill="#2f2e41"/>
    <circle id="Ellipse_4393" data-name="Ellipse 4393" cx="2.085" cy="2.085" r="2.085" transform="translate(137.528 100.132)" fill="#2f2e41"/>
    <circle id="Ellipse_4394" data-name="Ellipse 4394" cx="0.521" cy="0.521" r="0.521" transform="translate(135.344 105.685)" fill="#f2f2f2"/>
    <circle id="Ellipse_4395" data-name="Ellipse 4395" cx="0.261" cy="0.261" r="0.261" transform="translate(135.38 104.662)" fill="#f2f2f2"/>
    <circle id="Ellipse_4396" data-name="Ellipse 4396" cx="0.261" cy="0.261" r="0.261" transform="translate(139.128 100.673)" fill="#f2f2f2"/>
    <circle id="Ellipse_4397" data-name="Ellipse 4397" cx="0.521" cy="0.521" r="0.521" transform="translate(139.092 101.696)" fill="#f2f2f2"/>
  </g>
</svg>
